# xmcd
#
# Track frame offsets:
#	150
#	17537
#	38414
#	60989
#	80955
#	101030
#	118235
#	134720
#	144619
#	166069
#	186994
#	207317
#	218757
#	227417
#	260656
#
# Disc length: 3733 seconds
#
# Revision: 2
# Processed by: cddbd v1.5.2PL0 Copyright (c) Steve Scherf et al.
# Submitted via: audiograbber 1.83.01
#
DISCID=d70e930f
DTITLE=Harvey Stanley - Go Harvey, Go!
DYEAR=2006
DGENRE=Pop-Folk
TTITLE0=Happy Camper
TTITLE1=No Name New York Girl
TTITLE2=Upholstery Man
TTITLE3=The Desert Song
TTITLE4=Forum Woman
TTITLE5=Weezer Geezer
TTITLE6=WIth You
TTITLE7=That Little Woman
TTITLE8=Walking in the Rain
TTITLE9=Living on the Edge
TTITLE10=Go Harvey Go
TTITLE11=Hallway of LIfe
TTITLE12=O My Aching Soul
TTITLE13=Untitled Bonus Track
TTITLE14=Data Track
EXTD=Hit Street Records\nUPC: 837101160735\n(c) 2006 Harvey Stanley
EXTT0=
EXTT1=
EXTT2=
EXTT3=
EXTT4=
EXTT5=
EXTT6=
EXTT7=
EXTT8=
EXTT9=
EXTT10=
EXTT11=
EXTT12=
EXTT13=
EXTT14=
PLAYORDER=
